<?xml version="1.0" encoding="UTF-8" standalone="no"?>
<!-- Created with Inkscape (http://www.inkscape.org/) -->

<svg
   width="512"
   height="512"
   viewBox="0 0 512 512"
   version="1.1"
   id="svg1"
   inkscape:version="1.4.2 (ebf0e940, 2025-05-08)"
   sodipodi:docname="kamifusen_3.svg"
   inkscape:export-filename="kamifusen-icon.png"
   inkscape:export-xdpi="96"
   inkscape:export-ydpi="96"
   xmlns:inkscape="http://www.inkscape.org/namespaces/inkscape"
   xmlns:sodipodi="http://sodipodi.sourceforge.net/DTD/sodipodi-0.dtd"
   xmlns="http://www.w3.org/2000/svg"
   xmlns:svg="http://www.w3.org/2000/svg">
  <sodipodi:namedview
     id="namedview1"
     pagecolor="#ffffff"
     bordercolor="#000000"
     borderopacity="0.25"
     inkscape:showpageshadow="2"
     inkscape:pageopacity="0.0"
     inkscape:pagecheckerboard="0"
     inkscape:deskcolor="#d1d1d1"
     inkscape:document-units="px"
     inkscape:zoom="0.89795245"
     inkscape:cx="242.77455"
     inkscape:cy="238.87679"
     inkscape:window-width="1512"
     inkscape:window-height="916"
     inkscape:window-x="0"
     inkscape:window-y="38"
     inkscape:window-maximized="1"
     inkscape:current-layer="svg1" />
  <defs
     id="defs1" />
  <g
     inkscape:label="Layer 1"
     inkscape:groupmode="layer"
     id="layer1"
     style="stroke-width:0;stroke-dasharray:none">
    <path
       style="display:inline;fill:#000000;stroke:#000000;stroke-width:3;stroke-dasharray:none;stroke-opacity:1;stroke-linejoin:miter"
       d="m 456.90892,142.38401 c 11.01612,18.09783 5.19883,7.43392 9.89036,19.13339 4.96983,12.39345 6.28733,12.89966 4.07037,20.01068 -1.16155,3.7257 -8.75714,-2.4998 -3.4924,4.69047 l 2.93707,4.01127 1.96883,5.61175 c 3.50814,9.99916 8.70218,31.72304 10.35778,43.32097 2.9441,20.6241 3.20279,40.67175 0.80446,62.34097 -5.03569,45.49804 -23.14854,86.56778 -53.64198,121.62979 -6.93258,7.97122 -31.67954,29.27686 -40.81144,35.13616 -55.3587,35.51987 -119.66361,44.71915 -184.04784,26.32937 -13.37559,-3.82041 -25.43869,-8.28208 -34.34096,-12.70138 l -6.61411,-3.28341 -5.01758,-2.66514 c -7.44571,-3.95488 -12.00754,-2.22643 -16.67426,-4.54778 -19.17621,-9.53874 -41.54232,-22.14667 -69.57732,-57.5309 -20.574765,-25.96834 -25.615273,-35.4746 -31.066421,-55.78565 -2.829207,-10.54166 -3.99069,-11.39649 -4.326035,-20.0128 -0.09565,-2.45765 0.921653,-6.46484 0.729374,-7.28976 -0.161261,-0.69184 -3.709873,-10.25226 -5.747645,-18.19089 -6.147716,-23.94979 -8.192687,-46.98621 -6.415809,-72.27335 1.230202,-17.50732 3.290261,-29.95944 7.348227,-44.41666 11.87544,-42.30841 34.477613,-77.56779 67.533559,-105.352318 45.99624,-38.661213 94.73893,-54.437776 155.54611,-50.345668 35.5581,2.392926 62.23688,9.638138 94.1168,25.559448 l 10.72251,5.35499 4.70845,1.552222 c 3.03105,-2.677719 -3.01813,-3.17445 -1.34136,-2.967594 11.90773,1.469008 21.09793,3.783704 50.4063,30.805574 5.42437,5.001184 29.85842,31.970576 30.73866,33.416676 z m -43.1453,-44.566385 c -4.32924,-4.043402 -5.00679,-4.405685 -9.59038,-5.128105 -2.71261,-0.427553 -4.94555,-0.612656 -4.96209,-0.411357 -0.0165,0.2013 2.88892,3.253015 6.4566,6.781589 8.48773,8.394708 26.11428,29.195508 33.98747,40.108038 3.43244,4.75748 6.4441,8.66665 6.69258,8.68709 0.24849,0.0204 0.40606,-2.19185 0.35018,-4.91615 -0.11011,-5.36778 -0.63092,-6.43082 -8.68038,-17.71789 -4.8871,-6.85277 -17.4581,-21.05603 -24.25398,-27.403215 z m 36.44006,52.222675 c -0.27047,3.7494 0.0354,4.90391 2.12809,8.03309 1.34418,2.0099 4.32332,6.95699 6.62032,10.99353 2.29699,4.03652 4.39056,7.35674 4.65237,7.37825 0.90157,0.0741 -4.82526,-15.12042 -8.63672,-22.9151 -2.10024,-4.29508 -3.96026,-7.82258 -4.1334,-7.83886 -0.17312,-0.0163 -0.45692,1.94082 -0.63066,4.34909 z M 393.90894,82.085986 c -9.00129,-6.156633 -20.49596,-12.702029 -19.9596,-11.365567 0.18637,0.464337 3.05475,3.001611 6.37419,5.638372 3.31946,2.636776 7.92339,6.407503 10.23093,8.379393 3.69012,3.153357 4.70153,3.6208 8.39557,3.880121 2.31002,0.162177 3.96984,0.02345 3.68849,-0.308272 -0.28135,-0.331727 -4.20964,-3.13255 -8.72958,-6.224047 z m 13.84698,24.106804 c -12.33902,-12.78538 -14.249,-14.445743 -16.75853,-14.5684 -5.55447,-0.27148 -24.01961,2.723938 -24.11728,3.912311 -0.025,0.30403 3.89253,4.583349 8.70451,9.510499 21.4234,21.93223 42.38662,47.11995 57.1192,68.62984 2.69449,3.93404 5.19656,7.17724 5.56018,7.20712 1.54556,0.12701 8.33207,-22.95736 7.65036,-26.0228 -0.2845,-1.27927 -8.83161,-13.62465 -15.41257,-22.2618 -6.10761,-8.0159 -15.33011,-18.72274 -22.74587,-26.40677 z m 40.23873,58.39092 c -0.64995,2.65304 -2.55988,8.51264 -4.24431,13.02133 l -3.06257,8.19762 3.94517,6.15161 c 8.72145,13.5992 21.28139,37.98719 26.62928,51.70685 3.17693,8.15021 7.2979,19.98346 8.01894,23.02621 0.85621,3.61314 1.99981,6.00488 2.35211,4.91931 0.67386,-2.07637 -1.11154,-23.44158 -2.87768,-34.43603 -2.36463,-14.72015 -6.96492,-32.95068 -10.64029,-42.16641 -2.66305,-6.67742 -15.38327,-30.85478 -17.80861,-33.84884 -1.09261,-1.34872 -1.1698,-1.23425 -2.31204,3.42835 z M 372.8703,74.595791 C 361.53727,65.599235 357.74146,63.229048 343.65213,56.351361 332.11324,50.718674 317.39156,45.060033 305.69974,41.763432 c -8.56764,-2.415698 -23.61737,-5.498027 -23.67079,-4.847991 -0.0221,0.269179 1.44169,1.108359 3.25292,1.864861 5.76258,2.406844 21.39965,11.077705 29.37349,16.287797 15.97159,10.435786 38.85658,27.982918 44.97914,34.48788 l 2.48229,2.637313 7.27962,-1.556697 c 4.00378,-0.856178 9.42006,-1.697416 12.03616,-1.869422 7.86122,-0.516844 7.66025,-0.32418 3.94801,-3.785245 -1.8071,-1.684807 -7.43672,-6.358565 -12.51028,-10.386137 z m 3.93758,36.631869 c -5.02381,-5.19677 -10.4982,-10.70708 -12.1653,-12.245118 l -3.0311,-2.796471 -6.33654,2.002401 c -5.52837,1.74703 -22.02225,8.648258 -27.07754,11.329558 -1.56894,0.83217 -1.64337,1.58991 -0.71665,7.29613 l 1.03411,6.36754 11.49944,11.33844 c 21.60911,21.30665 52.55807,59.46276 67.5602,83.2931 2.26324,3.59509 4.33744,6.5548 4.60934,6.57714 1.4659,0.12046 16.21364,-22.1441 21.54098,-32.52023 l 3.02981,-5.90126 -3.74392,-5.82271 C 421.04851,161.542 397.32504,132.4512 376.80788,111.22766 Z M 352.20987,87.476619 C 332.43763,70.194216 307.96103,53.673174 286.806,43.330787 273.16499,36.6619 265.78013,34.213901 259.34798,34.228752 c -5.99778,0.01385 -31.20919,2.810966 -38.09608,4.226621 -5.87895,1.208457 -19.14252,5.477239 -19.20022,6.179455 -0.0805,0.978892 1.63322,0.65902 7.45943,-1.392396 7.16602,-2.523177 16.52255,-3.661896 27.21979,-3.31274 18.19719,0.593961 34.0393,5.24548 48.29186,14.179337 10.55827,6.618171 13.44767,9.119967 21.38822,18.519027 8.18489,9.688242 12.0123,16.047467 16.07616,26.710306 1.29985,3.410588 2.59992,6.479988 2.88903,6.820878 0.28911,0.34088 1.38449,0.16695 2.43418,-0.38649 5.00899,-2.641 21.57759,-9.642808 25.69151,-10.857111 2.54055,-0.749887 4.7179,-1.447169 4.83857,-1.549509 0.30987,-0.262809 0.34133,-0.232582 -6.13056,-5.889511 z M 438.9184,189.74001 c -0.17033,0.14446 -1.28494,2.16084 -2.47689,4.48085 -3.57129,6.95104 -10.211,17.50177 -16.35058,25.98163 l -5.78169,7.98552 1.56478,2.69029 c 25.19377,43.31489 39.48407,79.84078 43.20288,110.4262 0.51326,4.22134 1.10758,7.88077 1.32071,8.13206 0.44536,0.52511 4.97666,-8.35456 8.67769,-17.00505 6.36376,-14.87415 12.31123,-37.87292 11.56771,-44.73214 -1.97228,-18.19482 -14.71547,-51.32316 -30.95631,-80.47682 -8.48815,-15.23693 -10.17912,-17.98224 -10.76831,-17.48253 z M 294.27075,64.809757 C 279.36285,52.834199 263.00423,46.04213 242.55947,43.339395 c -8.79571,-1.16277 -21.33036,-0.974497 -29.53081,0.443592 -8.88482,1.53642 -8.93682,1.669859 -1.58532,4.067446 3.70015,1.206759 9.48178,3.247851 12.84809,4.535763 3.36627,1.287924 7.989,2.564805 10.2727,2.837515 9.65102,1.152492 15.33421,2.641969 22.72807,5.956691 11.40703,5.113843 17.50118,9.993908 27.33438,21.888814 6.69362,8.097037 8.90589,10.309775 15.48641,15.489666 4.22248,3.323728 9.07948,7.339638 10.79337,8.924238 4.40403,4.07188 5.2884,4.55395 6.48787,3.53664 0.7371,-0.62516 0.58418,-2.80319 -0.50274,-7.16005 -0.85916,-3.44388 -1.33714,-6.243104 -1.06219,-6.220503 0.27496,0.0226 1.32003,2.640193 2.32238,5.816873 1.37659,4.36269 2.09442,5.73815 2.93401,5.62194 0.61133,-0.0846 1.28164,-0.2912 1.48954,-0.45909 0.85443,-0.68992 -4.36775,-13.060234 -10.14204,-24.024436 -2.13155,-4.04738 -12.12978,-14.938672 -18.16244,-19.784737 z m 27.6549,48.392913 c -1.43288,1.21527 -1.04691,2.99886 1.23953,5.72813 1.56492,1.86803 2.24023,0.90345 1.73104,-2.47251 -0.58476,-3.87693 -1.30599,-4.6674 -2.97057,-3.25562 z m 14.38146,22.45295 c -3.66739,-3.51832 -6.82795,-6.42174 -7.02345,-6.45203 -0.19552,-0.0303 -0.35941,1.69058 -0.3642,3.82415 -0.0336,14.92496 -4.89099,30.87234 -13.55826,44.51337 l -3.76392,5.92385 13.67982,16.15026 c 7.52346,8.88302 15.00535,17.96376 16.62542,20.18032 1.62008,2.21654 6.45549,8.73656 10.74535,14.48893 4.28985,5.75237 10.6967,14.91154 14.23744,20.35372 3.54073,5.44214 6.65367,10.14948 6.91765,10.46073 0.48621,0.57327 2.49479,-1.28533 14.63091,-13.53843 7.8655,-7.94133 21.1261,-22.79861 21.20114,-23.75394 0.0686,-0.87274 -14.5402,-22.55312 -22.46822,-33.34437 -7.82648,-10.65304 -42.7149,-50.99277 -50.8597,-58.80654 z m -13.25057,-12.25496 c -1.48687,-1.00485 -1.56149,-0.75264 -1.31992,4.46191 0.69275,14.95433 -4.61405,33.98086 -12.87478,46.16006 -2.59285,3.82276 -2.68923,4.23048 -1.3683,5.78794 1.05052,1.23863 1.70182,1.43737 2.49791,0.76218 3.27419,-2.77694 11.61617,-20.39046 13.85878,-29.26191 1.80102,-7.12449 2.93512,-24.58921 1.68203,-25.90229 -0.49487,-0.51855 -1.60894,-1.42209 -2.47572,-2.00789 z m -7.85729,-6.91351 c -0.41827,0.0632 -4.26332,2.33031 -8.54451,5.03813 l -7.784,4.92333 -1.42876,6.40465 c -1.9979,8.95591 -3.98876,13.29532 -11.10855,24.21295 -0.43889,0.67301 0.051,1.4786 1.87134,3.07723 1.35622,1.19106 5.46591,5.20762 9.13264,8.9257 3.66674,3.71806 6.82613,6.77322 7.02089,6.78922 0.19477,0.016 1.76325,-2.29445 3.48551,-5.13435 6.95454,-11.4676 11.91375,-29.38683 11.86357,-42.86701 -0.022,-5.91326 -0.33679,-7.46307 -1.88701,-9.29089 -1.02333,-1.20657 -2.20284,-2.14211 -2.62112,-2.07896 z m 88.28108,124.03481 c -4.45734,5.03693 -12.41497,13.39925 -17.68363,18.58292 l -9.57936,9.42487 1.56125,2.69328 c 19.00795,32.79034 28.62094,53.96064 37.20215,81.9288 5.39923,17.59733 7.13571,25.96777 7.32327,35.30079 0.0729,3.62782 0.1584,7.20907 0.18999,7.95833 0.18491,4.38611 33.6091,-35.26851 34.33376,-40.73375 0.40917,-3.08583 -2.08729,-20.70629 -4.37363,-30.86991 -3.81177,-16.94474 -10.66563,-36.04743 -20.00598,-55.75947 -4.41713,-9.32201 -19.5911,-37.26072 -20.37926,-37.52283 -0.26637,-0.0886 -4.13124,3.96004 -8.58856,8.99697 z M 302.00899,104.62341 c -3.57604,-2.96643 -6.71501,-5.411028 -6.97546,-5.432438 -0.26047,-0.0214 0.20822,2.455848 1.04155,5.505008 0.83333,3.04916 1.84238,8.1046 2.24234,11.23432 0.39997,3.12969 0.90404,5.6927 1.12016,5.69554 0.51978,0.007 10.29031,-6.11273 11.78894,-7.38376 0.99992,-0.84806 0.88714,-1.22909 -0.77235,-2.60912 -1.06879,-0.8888 -4.86912,-4.04309 -8.44518,-7.00955 z m -40.4652,-29.527819 c -10.91454,-6.852101 -15.16985,-8.435386 -25.7339,-9.574966 -14.56239,-1.570892 -28.72095,0.950232 -42.27386,7.527452 -6.51324,3.160857 -15.36836,8.752185 -14.84268,9.371992 0.1519,0.179099 2.1738,1.153607 4.49315,2.165562 l 4.21697,1.83992 5.19355,-2.897472 c 11.47827,-6.403729 24.981,-9.205377 38.27318,-7.941233 9.42218,0.896094 16.03122,3.078973 24.54226,8.105959 5.72532,3.38163 6.87292,4.387771 12.25648,10.74561 4.81969,5.692005 6.23666,7.836165 7.51461,11.371455 3.20931,8.87803 2.8854,19.39022 -0.8698,28.22954 -1.26914,2.98744 -2.92939,5.95915 -3.68944,6.60377 -0.76004,0.64462 -1.17897,1.4113 -0.93094,1.70375 0.24802,0.29243 2.88541,-1.2607 5.86085,-3.45144 2.97543,-2.19074 6.95677,-5.09018 8.8474,-6.44321 l 3.43752,-2.46006 0.50983,-7.72061 c 0.91074,-13.79182 -3.10241,-24.589856 -13.38909,-36.025575 -4.77586,-5.309351 -6.82571,-7.013028 -13.41609,-11.150444 z M 471.49774,335.34753 c -2.43892,5.62432 -5.94188,12.95701 -7.78434,16.29488 -3.03373,5.49597 -3.36526,6.73027 -3.51223,13.0758 l -0.16227,7.00695 2.81422,-5.96526 c 1.54784,-3.28091 4.21776,-9.9058 5.93317,-14.72199 2.99683,-8.41394 7.79424,-25.1519 7.35683,-25.66764 -0.11604,-0.13682 -2.20645,4.35295 -4.64538,9.97726 z M 213.86814,34.291867 c -12.64323,1.451907 -23.29011,3.418693 -31.29008,5.780191 l -4.71615,1.392143 8.01102,0.989183 c 7.51122,0.927466 8.42678,0.834375 14.67512,-1.491895 3.66527,-1.364591 11.28819,-3.606128 16.93985,-4.981212 5.65166,-1.37507 9.87426,-2.630434 9.38358,-2.789673 -0.4907,-0.159262 -6.3422,0.336319 -13.00334,1.101263 z m 40.05174,56.974118 c -12.18729,-8.587756 -27.66024,-11.292381 -43.60025,-7.621175 -6.80198,1.566581 -15.11921,4.684391 -15.20257,5.698866 -0.0253,0.307827 4.76418,3.302656 10.64329,6.655155 5.87911,3.352511 14.80814,8.811139 19.84231,12.130299 9.08634,5.99087 35.25087,26.16346 37.73722,29.09502 1.87425,2.20986 3.22888,1.32758 5.21791,-3.39848 3.2083,-7.62307 3.09591,-17.7544 -0.28664,-25.83702 -1.76565,-4.2191 -9.658,-13.415541 -14.35127,-16.722665 z m -40.37621,-39.1743 c -2.85615,-0.964244 -8.28122,-2.572989 -12.0557,-3.574974 l -6.86271,-1.821791 -6.68986,3.084405 c -13.35292,6.156453 -30.0101,16.228903 -35.20036,21.285355 l -2.61593,2.548486 9.07346,2.44518 9.07345,2.445181 6.01627,-4.503362 c 11.10876,-8.315243 26.68186,-15.565227 38.90553,-18.112285 3.40342,-0.709177 6.0442,-1.458964 5.86844,-1.666205 -0.17578,-0.207248 -2.65644,-1.165745 -5.51259,-2.12999 z m 64.86359,89.051615 -5.17983,4.32249 2.28527,2.33033 c 2.19353,2.2368 2.35705,2.26378 4.07444,0.67223 0.98406,-0.91196 2.93844,-4.1281 4.34304,-7.14701 3.06162,-6.5802 2.1828,-6.60855 -5.52296,-0.17808 z m 30.58335,45.60594 c -0.11386,-0.0113 -2.6068,2.4635 -5.5398,5.49968 -7.16632,7.41849 -22.30214,18.49117 -32.83153,24.01809 -2.67563,1.40445 -4.82536,2.69502 -4.77719,2.86796 0.0481,0.17298 8.65216,10.67701 19.11998,23.34238 19.34837,23.41023 23.00453,28.29157 36.024,48.09553 4.03529,6.1381 7.64346,11.18537 8.01814,11.21617 1.24175,0.10204 13.76298,-9.53675 28.09054,-21.62399 l 14.13386,-11.92375 -0.79078,-1.6062 c -2.93344,-5.95811 -20.40366,-30.71761 -33.13302,-46.95746 -7.86885,-10.03888 -27.47926,-32.84511 -28.31416,-32.92836 z m -5.00492,-5.44809 c -0.36793,0.0555 -2.77975,2.38172 -5.3596,5.16929 -3.44671,3.7242 -6.39899,6.20968 -11.13249,9.3723 -6.01558,4.01917 -17.7195,10.04357 -17.64033,9.08003 0.0195,-0.23669 2.87254,-2.09017 6.34017,-4.11885 6.89533,-4.03399 19.6055,-14.23513 23.47716,-18.84271 l 2.44668,-2.91172 -5.42486,-5.61031 c -2.98368,-3.08566 -7.0614,-7.21346 -9.06157,-9.17288 l -3.63671,-3.56256 -7.03248,5.46708 c -11.09967,8.62893 -23.28721,12.81091 -36.69424,12.5911 -5.30908,-0.087 -5.80705,0.0618 -8.21265,2.45482 -3.04332,3.02739 -3.87618,1.74061 8.97413,13.86546 5.33041,5.02949 11.84063,11.32103 14.46716,13.98119 l 4.77551,4.83669 5.01477,-1.3725 c 2.75813,-0.75488 8.26406,-2.87031 12.23539,-4.70096 6.66981,-3.07456 8.02266,-4.00871 17.73543,-12.2464 5.78316,-4.90487 10.81466,-9.49701 11.18108,-10.20476 0.662,-1.27859 -1.14017,-4.27245 -2.45255,-4.07431 z m 148.51425,187.84158 c -5.56363,7.63244 -14.9345,18.41985 -22.7912,26.23638 l -7.00078,6.96499 -0.91512,7.8425 c -0.50333,4.31338 -1.92956,10.94813 -3.16944,14.74389 -2.62406,8.03339 -2.39063,7.95325 6.99275,-2.40093 11.98402,-13.22387 26.72817,-34.13237 28.65904,-40.64103 0.9965,-3.35904 2.78603,-17.76801 2.21257,-17.81515 -0.15182,-0.0125 -1.94632,2.26874 -3.98782,5.06935 z M 166.24972,45.840511 c -6.02655,1.515109 -20.30169,8.016378 -30.79157,14.023309 -9.93871,5.691299 -20.90447,13.24673 -20.28538,13.97667 0.21368,0.251939 0.67105,0.218412 1.0164,-0.07449 1.34296,-1.139005 13.40037,-2.121358 20.86993,-1.700351 7.52564,0.424175 7.96769,0.342541 10.70339,-1.976516 4.9433,-4.18994 19.85254,-13.828792 27.81818,-17.98363 13.10149,-6.833705 12.8435,-6.290775 3.24578,-6.83082 -4.64063,-0.261128 -10.30016,-0.0065 -12.57673,0.565826 z M 269.86657,148.06524 c -0.87564,-0.28594 -22.37519,18.04711 -22.81348,19.45343 -0.4226,1.35605 8.00772,-0.62278 14.07042,-3.30271 4.54587,-2.00944 13.22516,-8.03456 14.23775,-9.88378 0.55917,-1.02116 0.2122,-1.62514 -2.09154,-3.6409 -1.51905,-1.32917 -3.05047,-2.5109 -3.40317,-2.62606 z m 93.55409,131.81993 c -5.40519,4.58431 -14.86938,12.12469 -21.03154,16.75641 -6.16215,4.63172 -11.22611,8.69135 -11.25322,9.02138 -0.0271,0.33005 1.23777,2.77913 2.81088,5.4424 l 2.8602,4.84232 5.64176,0.77309 c 29.08539,3.98564 57.39764,23.45435 69.66768,47.90645 1.55468,3.09821 2.96388,5.64437 3.13156,5.65815 0.92777,0.0762 -2.66074,-12.33645 -4.75392,-16.44387 -4.86118,-9.53902 -18.47492,-21.84666 -34.32726,-31.03365 -7.72266,-4.47559 -6.06933,-4.63211 2.80589,-0.26564 12.15064,5.97792 18.38055,10.57575 25.57827,18.87734 l 4.7671,5.49827 -0.89651,-3.25707 c -3.79041,-13.77062 -26.75877,-61.57066 -33.85851,-70.46379 l -1.3148,-1.64685 z M 253.74553,133.53209 c -4.54024,-3.79088 -8.47051,-6.91023 -8.73396,-6.93186 -0.26346,-0.0217 -0.39793,1.52448 -0.29881,3.43589 0.0991,1.91139 -0.21761,4.6764 -0.70381,6.14446 -1.97797,5.97239 -10.45866,9.73518 -13.59827,6.03338 -1.01565,-1.19752 -0.84618,-1.53719 1.89234,-3.79301 2.48302,-2.04535 2.9987,-2.88643 2.9553,-4.81994 -0.0805,-3.58667 -1.41806,-5.63471 -4.69848,-7.19415 -3.83185,-1.82159 -6.70084,-1.92089 -10.76229,-0.37254 -3.87979,1.4791 -5.73704,2.94753 -8.06615,6.37744 -3.55659,5.23758 -2.93883,15.18799 1.36586,22.00063 3.84992,6.09287 16.12506,13.36211 23.26888,13.77964 l 3.32357,0.19424 13.04533,-11.06414 c 7.17493,-6.08527 12.75729,-11.15881 12.40524,-11.27453 -0.35204,-0.11571 -1.16759,0.23702 -1.81233,0.78384 -1.6853,1.42935 -4.33491,1.84632 -5.206,0.81925 -0.58643,-0.69143 -0.23693,-1.1735 1.61659,-2.22972 2.71754,-1.54863 3.83851,-3.18986 2.90738,-4.25679 -0.35527,-0.40653 -4.36015,-3.84121 -8.90039,-7.63209 z m -35.10506,-25.82591 c -7.4347,-4.79789 -21.82761,-13.098362 -26.41134,-15.231578 -1.81222,-0.843397 -2.49276,-0.630019 -6.23308,1.954197 -11.10852,7.674941 -21.97855,24.250261 -24.65558,37.596351 l -0.70437,3.51158 11.75436,6.93722 c 6.46487,3.81546 15.67266,9.66971 20.46172,13.00946 8.82189,6.15208 29.32508,22.06197 31.16706,24.18473 1.82,2.09751 3.15898,2.04769 4.7257,-0.17572 l 1.44044,-2.04419 -3.37078,-0.93485 c -1.85394,-0.51417 -5.56689,-2.10996 -8.25102,-3.54616 -4.37772,-2.3424 -5.54679,-3.39227 -11.35336,-10.19573 -6.33064,-7.41755 -6.50365,-7.7061 -7.86191,-13.11255 -4.55358,-18.12525 5.8147,-33.40677 23.90715,-35.23612 2.36879,-0.23951 4.08616,-0.6957 3.81641,-1.01376 -0.26975,-0.31806 -4.06388,-2.88436 -8.4314,-5.70288 z M 170.4612,89.354259 c -5.4313,5.302277 -11.38,13.946991 -15.07469,21.906751 -3.02368,6.51411 -6.53448,17.68411 -5.82222,18.52391 0.95844,1.13006 6.36442,3.68193 6.87769,3.24661 0.28566,-0.24227 1.01061,-2.39377 1.61101,-4.78111 3.30506,-13.14195 9.12445,-22.496 22.71917,-36.51863 l 3.05701,-3.153244 -4.3346,-1.905722 -4.3346,-1.905715 z M 389.50189,341.00698 c -12.60263,-10.48158 -30.06777,-18.42401 -45.77496,-20.81658 -3.3334,-0.50775 -3.9896,-0.3778 -3.86246,0.76497 0.2908,2.6138 2.58417,4.38092 5.93365,4.57206 4.03518,0.23027 15.73925,3.57648 22.26572,6.3658 11.20132,4.78728 24.8738,16.09286 30.63365,25.33049 10.50999,16.85597 13.27959,33.6197 8.37633,50.70007 l -1.01139,3.52316 2.05928,-1.69552 c 1.13264,-0.9325 3.24984,-2.46871 4.70494,-3.41372 3.23191,-2.09894 3.90835,-4.98544 3.39045,-14.468 -0.56998,-10.43687 -4.31027,-22.16446 -10.35785,-32.47701 -2.32225,-3.95996 -11.73972,-14.54522 -16.35738,-18.38573 z M 158.70041,79.39175 c -2.92032,-0.837574 -7.22757,-1.88368 -9.5717,-2.324666 l -4.26205,-0.801824 -9.32744,8.552012 c -12.10557,11.099174 -28.791,30.010758 -27.65737,31.347388 0.21504,0.25354 3.84166,1.26558 8.05914,2.24898 4.2175,0.98338 11.53949,3.13717 16.27112,4.7862 4.73163,1.64902 8.8218,2.81261 9.08928,2.58576 0.26748,-0.22686 0.92106,-2.39926 1.4524,-4.82757 1.20097,-5.48842 5.18746,-14.9018 8.80599,-20.79373 3.03716,-4.945282 11.11301,-15.564352 13.2044,-17.36264 1.50844,-1.297054 1.72224,-1.176807 -6.06377,-3.40991 z m 221.13968,263.28901 c -7.25487,-5.1679 -15.24977,-8.9348 -23.96224,-11.29006 -8.82386,-2.38536 -11.46147,-2.76028 -11.48374,-1.63229 -0.0101,0.51128 1.99067,5.03145 4.44616,10.04481 l 4.4645,9.11522 5.96553,2.79852 c 10.04075,4.71027 15.4495,8.82303 20.88952,15.88418 13.43035,17.4326 13.71343,39.34308 0.73675,57.02583 l -3.65697,4.98319 2.85827,-1.36674 c 2.54123,-1.21514 13.78991,-8.30947 21.05509,-13.27905 2.93421,-2.00708 3.15171,-2.5305 5.00228,-12.03816 2.66306,-13.68197 -0.6123,-29.76001 -8.6523,-42.47239 -3.38856,-5.35781 -11.03441,-13.05141 -17.66285,-17.77306 z m -110.46454,-113.48268 -7.91591,-8.5542 -5.93258,1.6457 c -14.63506,4.05976 -36.1227,3.9089 -50.91013,-0.35741 l -7.31354,-2.11003 -2.018,2.35745 c -1.1099,1.29661 -2.05213,2.67886 -2.09385,3.07168 -0.0417,0.39283 1.28855,1.81685 2.95615,3.16448 1.66759,1.34766 8.07164,7.21521 14.23121,13.03901 9.73231,9.20183 13.85917,13.72637 31.50717,34.54358 19.3225,22.79175 27.7097,33.82979 35.05163,46.12716 l 1.40377,2.35126 5.68873,-1.99006 c 3.1288,-1.09455 10.06223,-2.96167 15.40763,-4.14919 l 9.71889,-2.15912 8.21583,-5.70762 c 4.51869,-3.1392 8.22736,-5.83212 8.24148,-5.98429 0.0527,-0.56777 -11.72127,-18.71735 -17.2611,-26.608 -4.96918,-7.07788 -17.343,-23.13807 -27.88875,-36.19734 -1.74506,-2.1608 -6.73486,-7.77825 -11.08863,-12.48306 z M 118.39318,76.90633 c -10.52102,2.661601 -14.54452,4.944974 -23.810178,13.512428 -11.184259,10.341482 -26.999904,29.151722 -25.749924,30.625532 0.249789,0.29452 0.916914,0.14854 1.482489,-0.3244 1.612511,-1.34848 12.602009,-4.42946 17.671196,-4.95432 2.524662,-0.26141 6.992527,-0.35084 9.928547,-0.19872 l 5.33822,0.27659 5.15136,-6.85592 c 5.16891,-6.87926 15.25496,-17.844965 25.56141,-27.790762 l 5.52314,-5.329872 -7.19184,-0.329358 c -4.63963,-0.212488 -9.57397,0.273273 -13.90442,1.368802 z m 298.66713,333.54049 c -3.42027,10.89103 -9.70022,21.39613 -18.65631,31.20825 -7.53269,8.25269 -14.83006,13.57222 -26.35876,19.21462 -6.2539,3.06079 -7.15222,3.69673 -8.25811,5.84606 l -1.24087,2.41167 6.30892,-3.21919 c 13.97899,-7.13291 18.84112,-10.33459 29.96662,-19.73278 l 10.825,-9.14435 3.28023,-7.3823 c 1.81051,-4.07462 3.92503,-10.75927 4.7193,-14.91922 1.50239,-7.86849 1.21034,-10.00282 -0.58602,-4.28276 z M 253.59613,217.80723 c -12.96457,2.36133 -36.39403,-0.21068 -46.86741,-5.14497 -1.56867,-0.73904 -2.50949,-0.63362 -3.75231,0.42046 -2.33954,1.98424 -1.33208,2.74432 6.67853,5.03854 10.75108,3.07909 26.89755,4.10019 37.42684,2.3669 9.60437,-1.58104 11.74,-2.1445 11.0795,-2.92328 -0.23805,-0.28066 -2.29236,-0.17162 -4.56515,0.24235 z M 241.523,200.26664 c -13.84735,-13.27496 -14.39004,-13.69693 -15.93567,-12.3913 -2.15813,1.82381 -17.88691,19.23267 -18.60182,20.58985 -0.59609,1.13157 0.32072,1.59514 7.35711,3.72 9.83168,2.969 23.16987,4.43756 33.1171,3.64627 4.09614,-0.32583 7.61522,-0.73465 7.82018,-0.90848 0.61194,-0.519 -2.78445,-4.13747 -13.7569,-14.65634 z m -24.92689,-22.33757 c -13.87194,-11.59557 -30.43287,-23.40664 -44.38594,-31.65556 -9.99263,-5.90754 -11.67559,-6.72913 -12.16368,-5.93813 -1.02019,1.6533 -0.26257,15.03534 1.14936,20.30148 3.42546,12.77609 4.48138,14.7947 12.91905,24.69764 7.07706,8.30611 8.31014,9.4537 15.2448,14.18884 8.17638,5.58299 12.83301,8.19793 13.5364,7.60137 0.24542,-0.20815 3.69327,-3.99591 7.66187,-8.41724 3.96859,-4.42131 8.57968,-9.49456 10.24688,-11.27386 1.66721,-1.7793 2.87838,-3.41185 2.69147,-3.62789 -0.18705,-0.2159 -3.29199,-2.86054 -6.90021,-5.87665 z m 106.28654,133.05612 c -2.44145,1.64685 -4.61502,3.2842 -4.83016,3.63856 -0.3867,0.63694 11.52804,0.67567 12.91169,0.042 0.77301,-0.35404 -0.81045,-3.79967 -2.56449,-5.58039 -0.92295,-0.937 -1.71654,-0.66371 -5.51704,1.89986 z m 83.32243,104.47702 c -1.38583,1.10998 -3.42386,3.70553 -4.52898,5.76786 -1.10512,2.06233 -2.20465,3.73365 -2.44337,3.71403 -0.23873,-0.0196 0.083,-1.04181 0.71491,-2.27154 1.51703,-2.95213 0.75571,-3.66735 -1.69304,-1.59049 -2.59756,2.20307 -17.38402,10.95305 -21.6571,12.81572 l -3.36107,1.46511 -0.75595,6.52577 c -0.41579,3.58917 -1.47672,8.64135 -2.35762,11.22708 -0.88091,2.58573 -1.46486,4.86262 -1.29766,5.05977 0.1672,0.19714 3.24076,-1.37463 6.83013,-3.49282 16.43312,-9.69766 27.59258,-21.6123 34.27774,-36.5974 2.89194,-6.48243 2.92959,-6.71975 0.9046,-5.70259 -1.16211,0.58373 -3.24677,1.96951 -4.63259,3.0795 z m -78.9058,-97.1359 c -14.61338,-0.13043 -15.02321,-0.0611 -20.99579,3.54904 -3.04864,1.84278 -5.55813,3.59912 -5.57665,3.90294 -0.0185,0.30385 0.38669,0.39424 0.90049,0.20082 2.63006,-0.98992 23.29737,-2.77081 28.65418,-2.46912 3.38894,0.19088 6.2507,0.27157 6.35947,0.17932 0.21367,-0.18122 -1.06516,-2.58359 -2.27101,-4.2662 -0.41004,-0.5722 -3.59188,-1.06573 -7.07069,-1.0968 z m 5.3485,9.34679 c -8.89319,-0.58209 -19.47317,0.084 -30.08058,1.894 -8.75854,1.49447 -17.18909,3.86867 -17.27087,4.86379 -0.0858,1.04384 8.52908,16.09247 9.25717,16.17065 0.43629,0.0468 4.11197,-0.68553 8.1682,-1.62747 12.29237,-2.85454 22.54566,-3.68322 34.30566,-2.77256 6.14677,0.47598 11.18737,0.72623 11.20136,0.55609 0.0419,-0.50983 -7.8151,-16.59292 -8.63565,-17.67695 -0.41736,-0.55146 -3.54277,-1.18483 -6.94529,-1.40755 z m 30.57589,34.48529 c -4.5694,-3.22119 -5.79631,-3.38724 -4.59551,-0.62201 0.39444,0.90835 3.27428,9.16516 6.39962,18.34849 4.98138,14.63695 6.21954,19.32609 6.19191,23.44988 -0.021,3.12937 2.23468,16.22887 2.75981,16.02745 1.10107,-0.42231 4.62233,-7.63783 6.14646,-12.59485 2.88979,-9.39871 2.63635,-19.38665 -0.67901,-26.75724 -2.02392,-4.49955 -10.47645,-13.80049 -16.22328,-17.85172 z m -12.62394,-6.4172 c -10.2853,-4.2572 -29.37833,-4.52518 -44.6077,-0.62608 -4.11233,1.05287 -7.7311,2.12982 -8.04169,2.39324 -0.3106,0.26343 0.6773,3.03755 2.19533,6.16469 l 2.76007,5.68575 5.09489,-1.38662 c 14.85183,-4.04202 32.23077,-2.61339 44.33844,3.64484 2.23544,1.15545 4.68376,2.81845 5.44075,3.6955 2.66877,3.09209 2.38577,0.60863 -0.99138,-8.70055 -1.87726,-5.1747 -3.46464,-9.50036 -3.5275,-9.61257 -0.0628,-0.11225 -1.26041,-0.6784 -2.66121,-1.2582 z M 151.3635,135.05922 c -2.15231,-0.90173 -2.20504,-0.87676 -2.6885,1.27373 -0.7066,3.14296 -0.20153,13.43383 0.94185,19.1908 1.1071,5.57424 5.25324,16.28145 9.23253,23.84251 3.7485,7.12254 13.55374,18.65749 19.96042,23.4816 8.83753,6.65444 18.16409,11.3182 19.80337,9.90266 2.46384,-2.12755 1.91358,-3.00706 -3.77693,-6.03693 -6.27471,-3.3409 -15.99404,-10.93394 -22.6744,-17.71393 -10.90538,-11.06799 -17.72371,-30.22892 -16.47234,-46.2907 0.39571,-5.07911 -0.0434,-5.85552 -4.326,-7.64974 z m -18.22467,-7.91681 c -8.33745,-3.02376 -19.12368,-5.95342 -24.84174,-6.74732 l -3.80349,-0.52808 -4.819592,7.93571 c -5.630075,9.27022 -9.816567,17.33639 -14.870283,28.65081 -5.575039,12.48158 -5.727472,11.6553 2.322533,12.58785 18.014742,2.08689 37.107482,9.71239 62.041572,24.77897 12.38517,7.4838 26.40108,17.38875 36.42086,25.73832 l 4.3394,3.61606 1.77472,-2.15546 c 0.97611,-1.1855 1.79905,-2.30458 1.82876,-2.48684 0.0297,-0.18226 -2.8394,-1.86954 -6.37582,-3.74953 -13.5855,-7.22212 -23.98338,-16.11954 -31.59669,-27.03717 -10.44614,-14.97997 -16.32103,-34.98203 -15.05097,-51.24374 0.25412,-3.2537 0.37188,-6.08432 0.26172,-6.29025 -0.11024,-0.20589 -3.54411,-1.58714 -7.63098,-3.06933 z m 155.67862,195.83358 c -9.48018,2.2127 -10.14376,2.79277 -7.20568,6.29874 1.05149,1.25524 1.76078,1.30913 4.04775,0.30884 3.28005,-1.43462 13.21736,-6.9958 14.4495,-8.08629 1.3536,-1.19811 -1.32768,-0.84691 -11.29157,1.47871 z m 59.17797,58.37518 c -8.6046,-4.67602 -22.93324,-6.09528 -35.50567,-3.51685 -4.27304,0.87634 -5.67007,1.44673 -5.37892,2.19612 0.21629,0.55678 1.57881,4.30045 3.02779,8.31928 2.37811,6.5958 2.7764,7.2844 4.09219,7.07505 11.38252,-1.81105 15.90367,-0.89505 20.80968,4.21609 2.80679,2.92417 3.3626,3.93581 3.65327,6.64946 0.73152,6.82935 -3.0264,12.7654 -8.9432,14.12683 -4.73161,1.08871 -8.89278,-2.37619 -8.0173,-6.67581 0.61233,-3.0072 1.72468,-4.0783 4.50263,-4.33572 2.50423,-0.23202 3.03207,-1.4232 1.45477,-3.28294 -1.4141,-1.66731 -6.41625,-2.62933 -9.71953,-1.86926 l -2.40399,0.55314 1.40706,5.82814 c 0.77386,3.20546 1.83576,9.7972 2.35976,14.64829 0.524,4.85109 1.25018,9.17087 1.61373,9.59952 1.04782,1.23545 7.71662,1.02724 13.07719,-0.40828 6.89624,-1.84677 11.50832,-4.56681 18.46942,-10.89263 5.43999,-4.94353 6.24636,-5.98301 8.2905,-10.68718 2.59612,-5.97443 2.75955,-11.22316 0.53353,-17.13488 -1.89462,-5.03158 -7.77949,-11.3959 -13.32291,-14.40837 z m 18.09026,37.92857 c -3.34172,5.26373 -13.41398,14.03005 -20.581,17.91253 -5.86305,3.17612 -15.0031,5.56929 -20.44408,5.35294 -4.6495,-0.18486 -4.84825,-0.0868 -4.92928,2.43206 -0.0566,1.76118 0.11789,1.88538 2.77355,1.97347 5.39406,0.17893 16.0103,-1.8788 24.374,-4.72436 5.06634,-1.72372 13.91924,-7.6804 18.99754,-12.78251 l 4.0129,-4.03173 -0.53599,-5.16778 c -0.2948,-2.84228 -0.63152,-5.18149 -0.74827,-5.19825 -0.11683,-0.0167 -1.43046,1.88838 -2.91937,4.23363 z M 224.32951,260.6182 c -8.81913,-9.24831 -27.09122,-26.96868 -31.55214,-30.59942 -1.36755,-1.11304 -2.28883,-1.32294 -3.0337,-0.69119 -2.23052,1.89177 -20.95292,28.73855 -27.55761,39.51591 l -6.89291,11.24769 2.8894,2.69388 c 15.53284,14.48184 22.09128,21.52065 36.81375,39.5102 9.26164,11.31694 17.27201,21.73696 20.33067,26.44646 2.77601,4.27434 5.50692,8.3246 6.0687,9.00058 0.87872,1.0574 2.25498,0.70627 9.85253,-2.5137 4.98655,-2.11338 12.01933,-5.80746 16.15454,-8.48542 7.61659,-4.93249 17.26901,-9.76886 25.84868,-12.95148 2.75221,-1.02094 5.01776,-2.02347 5.03456,-2.22785 0.046,-0.55984 -7.02131,-11.74643 -12.42021,-19.65947 C 253.8466,294.28816 239.24768,276.2624 224.32951,260.6182 Z M 91.301358,119.05355 c -9.802123,0.40611 -22.095744,4.60417 -27.900858,9.52766 -4.982321,4.22566 -16.834117,27.91227 -23.096615,46.16016 -2.108501,6.14382 -3.672155,11.36096 -3.474778,11.59368 0.197364,0.23271 1.150462,-0.64187 2.117999,-1.94349 6.513505,-8.76274 19.553499,-15.16249 32.895106,-16.14423 l 4.382114,-0.32244 4.452718,-10.57634 c 4.462493,-10.59965 11.742508,-24.85058 16.617405,-32.52928 1.431595,-2.25499 2.713941,-4.44215 2.849681,-4.86038 0.30698,-0.94593 -2.046784,-1.1869 -8.842772,-0.90534 z M 365.81336,440.11794 c -14.18045,9.39563 -29.71317,14.64992 -42.60736,14.41291 l -4.81698,-0.0886 -0.90399,3.33652 c -0.80009,2.95309 -4.5546,11.53859 -7.23399,16.54212 -0.91699,1.7124 -0.68464,1.75718 6.00314,1.15706 7.37474,-0.66176 17.50616,-3.00264 28.51425,-6.58827 8.68417,-2.82865 6.34798,-0.80429 -3.7196,3.22321 -10.63117,4.25291 -18.45543,6.37676 -28.40734,7.71102 -8.03518,1.07729 -8.57221,1.26946 -13.50638,4.83295 -2.82618,2.04108 -5.04327,3.82332 -4.92688,3.96055 0.44054,0.51943 14.56992,-1.71334 23.91273,-3.77876 5.34954,-1.18264 14.69138,-3.75672 20.75963,-5.72019 9.9936,-3.23358 11.44815,-3.91757 15.43701,-7.25911 2.42207,-2.02904 4.73082,-4.31792 5.13052,-5.08642 0.71444,-1.37365 0.69547,-1.39601 -1.12235,-1.32332 -1.72532,0.069 -1.70986,0.002 0.23085,-1.00511 3.8208,-1.98224 5.13129,-3.64141 7.1547,-9.05833 2.13998,-5.729 4.32273,-15.91674 3.59424,-16.77568 -0.24082,-0.28395 -1.8123,0.3944 -3.49218,1.50744 z M 280.30225,336.92642 c -0.70678,0.30646 -4.7486,2.33523 -8.98183,4.50841 -4.23323,2.17315 -12.18673,5.8513 -17.67443,8.17364 -9.68466,4.09844 -10.21206,4.42124 -17.96113,10.99346 -4.39093,3.72407 -7.99465,7.00648 -8.00829,7.29424 -0.0136,0.28778 0.48236,1.46785 1.10221,2.62242 l 1.12702,2.0992 8.9655,-7.52811 c 8.57019,-7.19613 16.23554,-12.30819 19.10503,-12.74112 0.83855,-0.12652 -0.43896,1.01734 -3.42379,3.06559 -2.61881,1.79709 -8.78907,6.71814 -13.71171,10.93569 -7.46517,6.39582 -8.93226,7.91735 -8.84191,9.16939 0.12971,1.79768 5.34313,12.20996 6.14655,12.27599 0.30967,0.0254 1.80544,-1.59523 3.32387,-3.6016 1.64635,-2.17528 6.42517,-6.73699 11.83812,-11.30029 9.97895,-8.41257 16.11461,-12.07725 29.57242,-17.66282 4.01293,-1.66553 7.30573,-3.18362 7.31732,-3.37355 0.0278,-0.45534 -6.83989,-13.12298 -7.83618,-14.45402 -0.42548,-0.56862 -1.352,-0.78299 -2.05878,-0.47653 z M 174.05758,215.11211 C 155.17815,200.68944 139.5574,191.17988 121.4962,183.11392 106.58157,176.4532 91.527327,172.1802 81.400017,171.73301 c -3.195103,-0.14109 -2.994249,-0.55116 -7.243058,14.7878 -3.492114,12.60716 -5.042359,20.44331 -7.124281,36.01179 l -1.445775,10.81151 5.652685,0.90311 c 18.486286,2.95348 39.634972,12.98697 63.981032,30.35426 5.51124,3.93145 11.47445,8.48401 13.25158,10.11678 1.77714,1.6328 3.52273,2.92469 3.87909,2.8709 0.35638,-0.0538 1.60284,-1.82817 2.76995,-3.94304 5.06327,-9.17496 19.77407,-31.04006 28.94876,-43.02741 l 3.67169,-4.79731 -1.88902,-1.57085 c -1.03896,-0.86396 -6.34675,-4.97627 -11.79509,-9.13844 z m 116.15798,144.89363 c -5.73495,1.69226 -16.51033,7.12128 -23.13483,11.65614 -7.30703,5.00209 -14.06817,11.78468 -19.28153,19.34261 -5.22765,7.5787 -5.5585,9.19047 -3.14587,15.32597 4.87032,12.38558 8.64322,31.43339 8.12486,41.01893 -0.11916,2.20327 0.0867,4.36369 0.45758,4.80092 0.8115,0.9568 13.51026,1.58253 25.67994,1.26536 10.08939,-0.26294 24.79941,-1.53466 23.75782,-2.05392 -0.38346,-0.19116 -2.57237,-1.10316 -4.86423,-2.02666 -10.53723,-4.24595 -21.24542,-14.46533 -25.35438,-24.19703 -4.27821,-10.13251 -3.77032,-22.75105 1.31685,-32.71774 2.2433,-4.39503 3.20284,-5.49352 9.48536,-10.85893 3.9274,-3.35402 8.89757,-6.975 11.34462,-8.26494 2.39529,-1.26264 4.37586,-2.54876 4.40128,-2.85806 0.0525,-0.63947 -3.8118,-9.40114 -4.69681,-10.64909 -0.31956,-0.45053 -2.16032,-0.35317 -4.09066,0.21644 z m 10.4771,21.09372 c -1.19581,0.38116 -5.34632,3.34757 -9.22336,6.59202 -6.59909,5.5224 -7.17468,6.18707 -9.01525,10.41106 -2.7294,6.26387 -3.30089,14.05025 -1.51334,20.61835 1.21786,4.4748 2.22541,6.40024 5.81241,11.10747 2.62304,3.44224 5.55293,6.56272 7.4091,7.88929 3.68287,2.63319 12.49143,6.47126 18.01699,7.85036 l 4.00196,0.99883 0.20756,-2.52601 0.20759,-2.52601 -4.55558,-2.10602 c -6.3953,-2.95653 -12.00491,-8.94903 -13.76849,-14.70828 -2.38721,-7.79585 0.24209,-16.2808 7.19778,-23.22773 l 4.15935,-4.15413 -2.53471,-7.39162 c -3.0789,-8.97859 -3.61391,-9.71631 -6.40201,-8.82758 z m 5.37593,33.00257 c -1.66418,4.37748 -0.68197,9.78861 2.46804,13.59689 2.29466,2.77419 7.1317,6.19935 7.8416,5.55273 0.65047,-0.59245 -0.77238,-11.65621 -2.45423,-19.08379 l -1.60309,-7.0797 -2.47206,1.78637 c -1.69899,1.22774 -2.88115,2.86247 -3.78026,5.2275 z m -1.44097,41.00005 c -11.39132,1.29795 -29.10262,2.20274 -38.20508,1.95171 -4.11903,-0.1136 -7.50307,-0.0371 -7.52009,0.17002 -0.017,0.20709 2.24367,1.97044 5.02373,3.91852 9.20277,6.44869 19.78109,10.58925 33.37997,13.06558 3.94133,0.7177 7.48165,1.03724 7.8674,0.71008 3.46022,-2.93472 10.56308,-19.89566 8.59881,-20.53314 -0.40735,-0.13219 -4.52248,0.19055 -9.14474,0.71723 z M 66.749027,172.46823 c -2.907856,0.4793 -7.459424,1.77383 -10.114587,2.87675 -8.638302,3.58821 -18.469889,13.23231 -22.203831,21.78041 -2.67047,6.11354 -5.992042,32.70468 -5.999672,48.03109 -0.0023,4.53467 0.114251,8.38438 0.258893,8.55493 0.144655,0.17055 1.506249,-1.82106 3.025763,-4.42578 5.229062,-8.96352 13.465045,-14.14196 24.37473,-15.32579 2.801909,-0.30405 5.369701,-0.63393 5.706165,-0.73308 0.33645,-0.0992 1.116184,-4.77514 1.732727,-10.39111 1.469583,-13.38609 4.159705,-26.93109 7.994605,-40.25344 3.476193,-12.07627 3.73999,-11.5175 -4.774793,-10.11398 z M 224.49616,362.73661 c 0.26376,1.74721 1.44527,1.45798 3.41775,-0.8367 l 1.76941,-2.05844 -2.68136,0.86609 c -2.19486,0.70896 -2.64951,1.07711 -2.50582,2.02902 z m -60.62981,-69.78089 c -4.89784,-4.68432 -9.32992,-8.67778 -9.84903,-8.87437 -1.26216,-0.47797 -8.93554,13.93384 -16.24029,30.50178 l -11.84366,19.43955 7.06449,8.0366 c 6.4785,7.36999 17.70937,30.0023 23.24081,30.34616 l 2.30362,5.40035 5.44522,-0.76562 c 9.12366,-1.28283 52.7643,-15.38294 53.69218,-17.07744 0.51588,-0.94213 -5.95054,-10.85669 -15.46118,-23.70569 -7.85342,-10.61007 -28.25508,-33.64447 -38.35216,-43.30132 z m 45.15053,74.19607 c -6.14815,2.0321 -16.66514,5.01704 -23.3711,6.6332 -6.70593,1.61617 -12.35793,3.07869 -12.55997,3.25005 -0.20204,0.17136 -13.11152,3.15256 -12.49882,3.87579 1.61622,1.90872 11.81171,13.7377 14.44521,20.41948 3.99464,10.13524 7.53236,22.71766 7.13028,31.11965 -0.19989,4.1771 8.3213,7.29016 8.5251,7.5303 0.20368,0.24015 3.85274,1.53108 8.10902,2.86874 l 7.73869,2.43208 -1.94416,-7.74 c -1.0693,-4.25699 -2.14393,-9.79536 -2.38804,-12.30749 -0.7872,-8.10037 0.35443,-19.28098 2.73047,-26.74072 2.5656,-8.05487 8.956,-20.12018 13.81526,-26.0837 4.53279,-5.56285 4.46529,-5.39296 2.88348,-7.25801 -1.38472,-1.63267 -1.84219,-1.56012 -12.61529,2.00063 z M 140.3028,272.72027 C 120.65039,257.44003 98.829836,245.27801 82.096326,240.27802 75.17857,238.21097 67.030515,236.98608 66.00184,237.85853 c -0.989407,0.83915 -1.111098,10.26018 -0.341865,26.46467 0.576243,12.13906 1.457959,35.94717 2.339174,36.98618 0.209958,0.24755 6.942068,2.55223 9.638523,3.13614 13.76142,2.98 21.268982,8.63782 38.027188,21.85014 2.89553,2.28286 6.09151,5.41335 6.47091,5.44452 0.37941,0.0312 8.71306,-9.87815 9.9666,-13.16269 2.68541,-7.03626 10.86466,-23.97702 15.32502,-31.741 2.20538,-3.8388 2.8976,-5.7611 2.31988,-6.44227 -0.45289,-0.53398 -4.70289,-3.98725 -9.44447,-7.67395 z m 81.82767,101.01177 c -6.24698,7.62384 -11.5531,17.81208 -14.39269,27.63526 -2.96519,10.25768 -2.35262,27.19461 1.40994,38.98415 l 1.91087,5.98744 2.85334,0.72437 2.85331,0.72435 -1.91169,-4.82199 c -5.46596,-13.7871 -6.19188,-27.35827 -2.1623,-40.42476 2.06648,-6.7009 6.14762,-14.19232 13.02524,-23.90939 1.8894,-2.66944 1.82903,-3.45521 -0.51827,-6.74603 -0.62333,-0.87377 -1.04827,-0.61799 -3.06775,1.8466 z m 6.15056,5.70376 c -1.67897,1.42398 -9.95732,15.59243 -11.27176,19.29168 -3.48479,9.80729 -4.73751,22.2052 -3.20944,31.76276 0.89608,5.60455 5.4401,17.50134 6.87426,17.99758 0.54177,0.18745 4.95646,1.00753 9.81041,1.82238 l 8.82536,1.48154 -3.28672,-5.94653 c -8.77805,-15.88173 -9.90419,-30.65353 -3.519,-46.15878 l 2.97184,-7.21655 -2.8485,-6.39899 c -3.44189,-7.73202 -3.30303,-7.52004 -4.34645,-6.63509 z m 12.21149,27.80863 c -0.24649,0.20905 -0.79576,2.70062 -1.2206,5.53681 -0.94795,6.32849 -0.16266,13.57719 2.18093,20.13125 1.79332,5.01515 6.57344,13.84327 7.53861,13.92259 0.74192,0.061 -0.21331,-11.80064 -1.44576,-17.95287 -1.01786,-5.08102 -5.53942,-20.70447 -6.24301,-21.57166 -0.19903,-0.2455 -0.5637,-0.27517 -0.81017,-0.0661 z m 51.42539,72.88324 c -8.68555,-0.97955 -15.71249,-2.92631 -23.54252,-6.5223 -7.03555,-3.23115 -14.34716,-7.49449 -15.80912,-9.21823 -1.52416,-1.79709 -2.3237,-1.22769 -4.05873,2.89049 -0.88531,2.1013 -2.87687,5.44091 -4.42569,7.42135 -1.54883,1.98044 -2.62311,3.82831 -2.38727,4.10638 1.08791,1.28271 12.60388,6.03517 17.03074,7.02831 2.71394,0.60886 5.20582,1.42699 5.5375,1.81807 1.81001,2.13412 -14.661,-1.63012 -21.8335,-4.98977 -3.99608,-1.87179 -4.12834,-1.86636 -9.41776,0.38679 -2.95062,1.2569 -5.88136,2.4509 -6.51275,2.65335 -2.99107,0.95905 19.57265,4.01422 33.17902,4.49251 16.23304,0.57062 20.07443,0.20948 26.9602,-2.5346 5.64455,-2.24942 12.69892,-6.02167 12.25025,-6.55069 -0.10088,-0.11894 -3.23754,-0.56069 -6.97037,-0.98166 z M 58.194833,237.00416 c -1.859636,0.0964 -5.488147,0.74743 -8.063341,1.44668 -3.930862,1.06736 -5.478924,1.94711 -9.647513,5.48261 -4.369607,3.706 -5.247227,4.83413 -7.314848,9.40281 -4.618677,10.20554 -4.079265,19.44223 2.420686,41.45066 3.412973,11.55613 6.162333,18.53272 7.470785,18.95736 0.47562,0.15435 3.833401,0.30132 7.152192,-2.9116 3.652081,-3.53557 8.504815,-3.60257 10.961027,-5.4242 4.017328,-2.97943 4.281918,-7.71596 2.945908,-16.31398 -1.950625,-12.55341 -3.110452,-41.90073 -2.116173,-49.25602 0.386787,-2.86121 0.147293,-3.03944 -3.808723,-2.83432 z M 241.39485,455.56448 c -0.9114,0.0148 -5.53083,-0.64744 -10.26543,-1.47177 -9.52376,-1.65814 -9.36166,-1.83695 -4.56648,5.0369 3.96352,5.68166 2.55477,5.07323 -2.29394,-0.99076 -3.7819,-4.72976 -5.02051,-5.86152 -7.26836,-6.64105 -3.41868,-1.18562 -3.81446,-0.83167 -2.21283,1.97891 3.59133,6.30216 14.72613,17.83351 21.0578,21.80777 2.19912,1.38036 2.31607,1.35241 4.34367,-1.03795 2.48396,-2.9284 5.66869,-8.5164 6.54646,-11.48654 0.50838,-1.72024 0.21181,-2.62929 -1.52642,-4.67879 -1.41537,-1.66881 -2.72734,-2.53444 -3.81448,-2.51673 z m -15.13496,16.48334 c -6.1754,-5.36329 -13.96389,-14.9324 -16.28994,-20.01417 -1.16629,-2.54806 -1.56134,-2.76328 -9.20304,-5.01343 -4.39143,-1.29307 -8.59314,-2.73274 -9.33713,-3.19924 -1.62132,-1.01662 -6.5937,-1.73978 -8.87898,2.17669 -1.21703,2.08572 -4.74808,2.91027 -8.36123,9.16326 l -9.37056,7.18219 6.24872,2.50302 c 7.92552,3.17469 26.54642,14.07378 36.52239,16.95755 8.40757,2.43037 18.58726,1.66607 24.93363,-1.87203 2.09615,-1.16862 2.19275,-1.37492 0.95984,-2.05002 -0.75397,-0.41287 -4.00463,-3.03808 -7.2237,-5.83382 z M 119.91726,337.64674 C 99.008895,319.03892 73.111331,301.16511 58.716576,312.28986 l -11.946795,9.23288 -0.514867,2.49447 c -2.762631,13.38438 5.055442,38.16261 19.472322,61.71462 5.64912,9.22864 24.928972,32.36535 33.344905,40.01543 13.769149,12.51615 26.850399,21.37867 39.946659,27.06378 6.80256,2.953 18.7889,5.98891 21.52887,5.45285 1.72868,-0.33819 14.03921,-10.12471 13.75933,-16.60698 -0.7503,-17.3773 -6.8466,-37.95167 -22.3678,-60.1596 -3.43644,-4.91688 -27.46771,-39.79745 -32.02194,-43.85057 z m 47.44894,129.08082 c -0.0273,0.3324 0.55195,0.65153 1.28725,0.70919 1.06259,0.0833 1.07278,-0.0407 0.0497,-0.60436 -0.70798,-0.39005 -1.30959,-0.43722 -1.33691,-0.10483 z M 38.558534,314.3649 c -0.126272,0.1071 -0.04013,0.73545 0.191425,1.39635 0.241421,0.68904 1.287963,1.59021 1.445525,1.10471 0.264113,-0.81384 -1.163836,-2.90232 -1.63695,-2.50106 z"
       id="path1"
       inkscape:label="path1"
       sodipodi:nodetypes="sssscssssssscssssssssssssccsssssssssssssssssssssssssssssscssssssscssssssssssssssscsssssscssscsssscsssssscssssssssssssscsssssssssssssssssssssssssssssssscsccssssssssssssssssssscssssssssssscssssssssssssscsssssssscsssssssssscsssssscsssssscsssssssssssssssscsscccssssccsssccssscsssscsssssssssscsscssssscssssssscssssssssssscssssssssssssssscssssssscsscsscsssssssssscssssscssssscsssscssssssssssscscccsssssssscsssssssscssssscssssssscssscsssssscsscsssscscsscssscscsscsscsscscsssscsscssssssssssscsssssssssssssscssssssssssssscsssssssssscssssssssssssssssssssssssscsssssssssssssssssscssssscssssscsscscssssssssssssscssssssssssssssscssssssscsssssssssssssscsccssssscssssssssssssscsssssssssscsssssssssscssssssscsssssscssssssssssssssssssssssscscccssscsssssscssssssssssssssssscssssscsssssscsscssssssscsscscsssssssssssssssssssssscccsssssssssscsscssssssscsssssssssssssssssssssssssssssssssssssssssssssscssssssscsssssssssssssssss" />
  </g>
</svg>
